<svg width="1000" height="1000" viewBox="0 0 1000 1000" fill="none" xmlns="http://www.w3.org/2000/svg">
<mask id="mask0" mask-type="alpha" maskUnits="userSpaceOnUse" x="0" y="0" width="1000" height="1000">
<rect width="1000" height="1000" fill="#C4C4C4"/>
</mask>
<g mask="url(#mask0)">
<path d="M985.318 661.923L569.053 51.4908C561.411 40.2484 551.135 31.0459 539.121 24.6855C527.107 18.3251 513.719 15 500.125 15C486.532 15 473.144 18.3251 461.13 24.6855C449.116 31.0459 438.84 40.2484 431.198 51.4908L14.4824 661.923C4.1213 677.174 -0.920475 695.417 0.13834 713.824C1.19716 732.231 8.29745 749.775 20.3389 763.737L186.575 956.102C193.871 964.665 202.817 971.67 212.879 976.701C222.941 981.732 233.913 984.685 245.14 985.385H250.546C271.212 985.392 291.134 977.68 306.409 963.761L487.061 800.679C490.631 797.418 495.291 795.61 500.125 795.61C504.96 795.61 509.62 797.418 513.19 800.679L693.392 963.761C701.666 971.325 711.382 977.141 721.957 980.862C732.532 984.584 743.749 986.133 754.937 985.418C766.125 984.703 777.054 981.738 787.069 976.701C797.085 971.664 805.981 964.658 813.226 956.102L979.912 763.737C991.886 749.724 998.905 732.153 999.882 713.747C1000.86 695.341 995.74 677.126 985.318 661.923ZM769.977 459.197L531.661 674.087V110.056L769.977 459.197ZM468.14 110.056V673.637L230.724 458.746L468.14 110.056ZM249.195 921.414C246.465 921.293 243.786 920.634 241.312 919.475C238.838 918.315 236.618 916.677 234.779 914.656L68.5429 721.84C65.7486 718.55 64.1047 714.438 63.8608 710.129C63.6168 705.819 64.7862 701.548 67.1913 697.964L194.233 511.906L452.823 745.717L444.263 753.376L263.611 916.458C261.683 918.239 259.406 919.599 256.924 920.452C254.442 921.305 251.81 921.633 249.195 921.414ZM931.258 721.84L765.022 914.656C761.417 918.632 756.411 921.054 751.056 921.414C748.371 921.641 745.668 921.319 743.112 920.467C740.556 919.615 738.201 918.251 736.189 916.458L734.838 915.107L547.879 745.717L806.017 512.356L932.609 697.964C935.014 701.548 936.184 705.819 935.94 710.129C935.696 714.438 934.052 718.55 931.258 721.84V721.84Z" fill="#FF0055"/>
</g>
</svg>
