<svg width="1000" height="1000" viewBox="0 0 1000 1000" fill="none" xmlns="http://www.w3.org/2000/svg">
<mask id="mask0" mask-type="alpha" maskUnits="userSpaceOnUse" x="0" y="0" width="1000" height="1000">
<rect width="1000" height="1000" fill="#C4C4C4"/>
</mask>
<g mask="url(#mask0)">
<path d="M996.776 339.162L996.171 266L813.839 267.513L814.444 340.675L855.879 340.329L782.773 432.068L708.076 341.557L749.688 341.211L749.083 268.053L612.867 269.181L613.546 351.095L732.469 495.19L615.957 641.39L616.078 656.003L672.204 655.536L672.826 730.514L752.912 729.848L752.29 654.87L705.937 655.255L783.862 557.47H783.866L863.49 653.95L817.046 654.334L817.669 729.312L1000 727.799L999.378 652.822L965.182 653.107L834.17 494.348L957.584 339.487L996.776 339.162Z" fill="#49A0DD"/>
<path d="M565.901 269.571L566.506 342.733L606.372 342.4L613.547 351.092L612.868 269.182L565.901 269.571Z" fill="#2C67AA"/>
<path d="M616.076 656.001L615.955 641.388L604.234 656.1L569.109 656.39L569.732 731.368L672.828 730.512L672.206 655.534L616.076 656.001Z" fill="#2C67AA"/>
<path d="M276.137 624.431L340.876 623.895C333.351 642.959 322.723 660.377 309.554 675.46C295.685 660.601 284.322 643.365 276.137 624.431Z" fill="#731B2B"/>
<path d="M275.453 524.181L263.901 524.276C262.258 534.255 261.441 544.511 261.528 554.966C261.61 564.829 262.487 574.497 264.104 583.915L276.426 583.815C278.885 574.596 280.151 564.863 280.069 554.815C279.983 544.144 278.375 533.853 275.453 524.181ZM275.453 524.181C278.375 533.853 279.983 544.144 280.069 554.815C280.151 564.863 278.885 574.596 276.426 583.815L339.462 583.292C336.73 574.117 335.235 564.41 335.153 554.357C335.062 543.686 336.579 533.373 339.479 523.649L275.453 524.181ZM307.548 433.696C289.189 454.043 275.445 478.631 267.955 505.786C270.997 511.604 273.517 517.758 275.453 524.181L339.479 523.649C341.364 517.296 343.849 511.193 346.857 505.406C339.28 478.264 325.696 453.81 307.548 433.696Z" fill="#731B2B"/>
<path d="M267.955 505.786C266.278 511.824 264.926 518 263.901 524.276L275.454 524.181C273.513 517.758 270.998 511.604 267.955 505.786ZM542.803 699.273L543.071 731.588L569.733 731.368L569.267 675.346C561.288 684.206 552.432 692.228 542.803 699.273V699.273ZM606.375 342.402L566.509 342.731L565.9 269.573L490.607 270.195L491.212 343.357L539.847 342.951L540.37 406.018C511.923 385.912 477.087 374.264 438.95 374.579C386.749 375.012 339.951 397.758 307.549 433.696C325.697 453.81 339.281 478.264 346.857 505.406C364.106 472.204 398.682 449.402 438.708 449.069C496.381 448.589 541.109 494.973 541.584 552.645L541.593 553.216C541.779 610.629 497.924 657.436 440.437 657.916C400.415 658.244 365.464 636.02 347.666 603.109C344.286 596.859 341.524 590.225 339.463 583.292L264.104 583.915C265.276 590.769 266.836 597.481 268.768 604.038C270.816 611.022 273.284 617.829 276.137 624.429L340.876 623.893C333.351 642.957 322.723 660.375 309.554 675.463C342.548 710.856 389.719 732.82 441.915 732.388C480.057 732.072 514.693 719.85 542.803 699.273C552.432 692.228 561.288 684.206 569.267 675.346L569.111 656.39L604.231 656.1L615.957 641.388L613.545 351.094L606.375 342.402" fill="#868484"/>
<path d="M177.432 376.749C89.0779 377.484 16.218 442.128 2.37898 526.445L77.9618 525.819C90.6987 483.009 130.189 451.627 177.19 451.238C217.099 450.906 250.815 473.017 267.956 505.786C275.446 478.631 289.19 454.043 307.55 433.695C275.645 398.294 229.633 376.317 177.432 376.749ZM255.159 624.606C236.864 646.138 209.864 659.826 178.923 660.081C131.299 660.479 90.8629 628.932 77.9445 585.458L264.105 583.915C262.489 574.497 261.611 564.829 261.529 554.966C261.443 544.511 262.255 534.255 263.902 524.276L2.37898 526.445C0.736626 536.425 -0.0802273 546.681 0.00621236 557.136C0.08833 566.998 0.965679 576.667 2.5821 586.084C17.1299 671.003 91.455 735.296 180.401 734.557C232.598 734.125 278.242 711.387 309.555 675.463C295.686 660.6 284.323 643.368 276.138 624.429L255.159 624.606V624.606ZM350.942 523.554C349.879 517.391 348.514 511.331 346.858 505.406C343.846 511.193 341.365 517.296 339.481 523.649C336.576 533.373 335.064 543.686 335.15 554.357C335.236 564.41 336.732 574.117 339.463 583.292L351.712 583.189C353.095 573.745 353.773 564.064 353.691 554.205C353.605 543.75 352.671 533.507 350.942 523.554" fill="#CF1F65"/>
</g>
</svg>
