<svg width="1000" height="1000" viewBox="0 0 1000 1000" fill="none" xmlns="http://www.w3.org/2000/svg">
<mask id="mask0" mask-type="alpha" maskUnits="userSpaceOnUse" x="0" y="0" width="1000" height="1000">
<rect width="1000" height="1000" fill="#C4C4C4"/>
</mask>
<g mask="url(#mask0)">
<path d="M339.953 93.6026C384.512 107.431 398.34 143.155 398.34 183.873C397.956 216.139 394.115 248.406 386.432 279.904C369.915 351.736 349.556 422.8 332.654 494.248C318.826 553.019 306.15 612.559 305.765 673.251C306.15 689.768 308.839 706.286 313.448 722.035C322.283 753.534 348.788 755.838 368.762 736.632C381.439 724.34 392.962 711.28 403.334 697.067C453.27 630.613 497.445 559.933 535.09 485.797C571.582 414.733 654.937 254.168 659.931 244.565C686.052 196.549 758.268 204.615 780.163 251.479C792.455 276.831 799.369 304.873 800.522 332.914C802.442 393.606 808.204 563.006 810.893 587.206C815.887 634.07 845.849 649.051 885.798 622.93C909.998 607.181 931.893 587.206 953.789 568.384C974.147 550.33 984.903 552.251 994.89 577.603C1003.73 599.883 999.884 622.162 992.585 643.289C968.001 714.737 914.608 752.765 843.544 768.13C820.88 773.124 797.449 773.508 774.401 769.667C723.312 761.216 690.661 731.638 671.071 685.927C652.248 641.753 646.487 516.143 642.261 500.009C635.347 514.606 553.528 683.238 510.505 747.388C483.616 788.489 450.966 825.75 413.321 857.632C376.061 888.747 333.807 907.953 284.254 909.105C224.33 910.642 180.924 883.369 150.962 832.664C131.756 800.013 123.689 763.521 121 725.876C117.159 673.251 125.61 621.778 137.134 570.305C140.975 553.787 143.664 536.886 147.889 515.759C131.372 524.21 120.616 531.892 108.324 536.117C93.7271 541.111 77.9779 546.105 62.6128 545.721C8.06668 544.184 0 483.876 0 473.889C18.4381 459.676 38.0286 446.616 54.9302 431.251C135.597 358.266 196.289 270.685 240.08 171.581C254.677 138.93 272.731 110.888 304.997 93.6026C315.753 88.9931 325.356 88.609 339.953 93.6026Z" fill="black"/>
</g>
</svg>
