<svg width="1000" height="1000" viewBox="0 0 1000 1000" fill="none" xmlns="http://www.w3.org/2000/svg">
<mask id="mask0" mask-type="alpha" maskUnits="userSpaceOnUse" x="0" y="0" width="1000" height="1000">
<rect width="1000" height="1000" fill="#C4C4C4"/>
</mask>
<g mask="url(#mask0)">
<path d="M666.122 489.928C574.433 440.93 486.641 395.884 396.9 348.852V630.207C491.335 578.871 590.871 531.858 666.511 489.928H666.122V489.928Z" fill="white"/>
<path d="M666.122 489.928C574.433 440.93 396.9 348.852 396.9 348.852L633.598 507.943C633.617 507.943 590.481 531.858 666.122 489.928Z" fill="#E8E0E0"/>
<path d="M414.155 850.448C223.709 846.942 158.662 843.788 118.681 835.55C91.6308 830.077 68.1243 817.925 50.8886 800.3C37.5676 786.96 26.9739 766.608 18.755 738.37C11.7048 714.845 8.95901 695.272 5.04434 647.461C-0.948249 539.557 -2.37682 451.338 5.04434 352.767C11.1668 298.332 14.1353 233.713 54.8033 196.013C74.0055 178.369 96.3432 167.015 121.427 162.321C160.611 154.881 327.55 149 500.37 149C672.801 149 840.111 154.881 879.332 162.321C910.668 168.202 940.056 185.828 957.31 208.555C994.416 266.922 995.065 339.501 998.831 396.273C1000.39 423.323 1000.39 576.923 998.831 603.973C992.968 693.695 988.256 725.439 974.935 758.352C966.698 779.131 959.666 790.096 947.495 802.248C928.407 820.949 904.073 833.388 877.736 837.907C712.931 850.3 572.986 852.99 414.155 850.448V850.448ZM666.53 489.928C574.841 440.93 487.049 395.494 397.309 348.462V629.836C491.743 578.5 591.298 531.468 666.92 489.539L666.53 489.928Z" fill="#CD201F"/>
</g>
</svg>
